<?xml version="1.0" encoding="UTF-8" standalone="no"?>
<svg
   xmlns:dc="http://purl.org/dc/elements/1.1/"
   xmlns:cc="http://creativecommons.org/ns#"
   xmlns:rdf="http://www.w3.org/1999/02/22-rdf-syntax-ns#"
   xmlns:svg="http://www.w3.org/2000/svg"
   xmlns="http://www.w3.org/2000/svg"
   xmlns:sodipodi="http://sodipodi.sourceforge.net/DTD/sodipodi-0.dtd"
   xmlns:inkscape="http://www.inkscape.org/namespaces/inkscape"
   width="605"
   height="605"
   viewBox="0 0 160.07291 160.07291"
   version="1.1"
   id="svg1774"
   inkscape:version="1.0beta1 (fe3e306, 2019-09-17)"
   sodipodi:docname="samurailogo-square.svg">
  <defs
     id="defs1768" />
  <sodipodi:namedview
     units="px"
     id="base"
     pagecolor="#ffffff"
     bordercolor="#666666"
     borderopacity="1.0"
     inkscape:pageopacity="0.0"
     inkscape:pageshadow="2"
     inkscape:zoom="0.35"
     inkscape:cx="400"
     inkscape:cy="560"
     inkscape:document-units="mm"
     inkscape:current-layer="layer1"
     inkscape:document-rotation="0"
     showgrid="false"
     fit-margin-top="0"
     fit-margin-left="0"
     fit-margin-right="0"
     fit-margin-bottom="0"
     inkscape:window-width="1280"
     inkscape:window-height="756"
     inkscape:window-x="0"
     inkscape:window-y="22"
     inkscape:window-maximized="0" />
  <metadata
     id="metadata1771">
    <rdf:RDF>
      <cc:Work
         rdf:about="">
        <dc:format>image/svg+xml</dc:format>
        <dc:type
           rdf:resource="http://purl.org/dc/dcmitype/StillImage" />
        <dc:title></dc:title>
      </cc:Work>
    </rdf:RDF>
  </metadata>
  <g
     inkscape:label="Layer 1"
     inkscape:groupmode="layer"
     id="layer1"
     transform="translate(-35.969708,-76.802851)">
    <g
       id="g113">
      <path
         style="display:inline;fill:#000000;fill-opacity:1;stroke:none;stroke-width:0.264583;stroke-linecap:butt;stroke-linejoin:miter;stroke-miterlimit:4;stroke-dasharray:none;stroke-opacity:1"
         d="m 113.42141,170.10152 -1.58354,17.14831 c 2.43568,7.31775 1.41359,15.56328 -3.43134,22.23172 -2.75465,3.79144 -6.29548,6.49128 -10.310347,8.19537 l 18.404957,12.43696 18.43833,-12.43696 c -4.05138,-1.72312 -7.6466,-4.45511 -10.39457,-8.23736 -4.81644,-6.62927 -5.86082,-14.97923 -3.41751,-22.18973 l -1.57096,-17.18138 c 0,0 -1.28984,0.34796 -2.9861,0.34795 -1.69625,0 -3.14892,-0.31488 -3.14892,-0.31488 z"
         id="path1383-4"
         inkscape:connector-curvature="0" />
      <path
         style="display:inline;fill:#000000;fill-opacity:1;stroke:none;stroke-width:0.264583;stroke-linecap:butt;stroke-linejoin:miter;stroke-miterlimit:4;stroke-dasharray:none;stroke-opacity:1"
         d="m 128.26823,163.78158 15.80496,6.74431 c 7.71227,-0.0552 15.23839,3.46492 20.08329,10.13336 2.75465,3.79144 4.22817,7.99325 4.6082,12.3382 l 17.51568,-13.66087 -6.13049,-21.37912 c -2.89073,3.32061 -6.6,5.89564 -11.04631,7.34033 -7.79317,2.53215 -16.05717,0.94514 -22.15974,-3.60675 l -16.69404,-3.82216 c 0,0 -0.13829,1.29589 -0.65413,2.96254 -0.51583,1.66665 -1.32742,2.95016 -1.32742,2.95016 z"
         id="path1383-8"
         inkscape:connector-curvature="0" />
      <path
         style="display:inline;fill:#000000;fill-opacity:1;stroke:none;stroke-width:0.264583;stroke-linecap:butt;stroke-linejoin:miter;stroke-miterlimit:4;stroke-dasharray:none;stroke-opacity:1"
         d="m 126.94609,147.55891 11.38685,-12.99413 c 2.33072,-7.35185 8.00424,-13.42184 15.84348,-15.96896 4.4571,-1.4482 8.90861,-1.55119 13.15833,-0.56995 l -7.57962,-20.879911 -22.2272,-0.776053 c 2.26483,3.775374 3.5676,8.098834 3.56759,12.773984 0,8.19423 -4.06306,15.56336 -10.27797,19.96064 l -8.8461,14.80816 c 0,0 1.22683,0.44825 2.65789,1.50304 1.43105,1.0548 2.31675,2.14318 2.31675,2.14318 z"
         id="path1383-88"
         inkscape:connector-curvature="0" />
      <path
         style="display:inline;fill:#000000;fill-opacity:1;stroke:none;stroke-width:0.264583;stroke-linecap:butt;stroke-linejoin:miter;stroke-miterlimit:4;stroke-dasharray:none;stroke-opacity:1"
         d="m 111.04891,143.85092 -8.773,-14.77566 c -6.271795,-4.48849 -10.291485,-11.76006 -10.291488,-20.00271 3e-6,-4.68651 1.277644,-8.95199 3.524091,-12.690487 l -22.200137,0.75642 -7.606663,20.899537 c 4.290466,-0.98731 8.804879,-0.89029 13.251181,0.5544 7.79317,2.53215 13.546082,8.67354 15.807613,15.94309 l 11.297183,12.94509 c 0,0 0.72053,-0.99477 2.35708,-2.1515 1.63656,-1.15674 2.63414,-1.47818 2.63414,-1.47818 z"
         id="path1383-9"
         inkscape:connector-curvature="0" />
      <path
         style="display:inline;fill:#000000;fill-opacity:1;stroke:none;stroke-width:0.264583;stroke-linecap:butt;stroke-linejoin:miter;stroke-miterlimit:4;stroke-dasharray:none;stroke-opacity:1"
         d="m 102.64731,157.83269 -16.769159,3.811 c -6.206911,4.57782 -14.364752,6.15371 -22.203961,3.6066 -4.457106,-1.4482 -8.118996,-3.98141 -10.980321,-7.27317 l -6.140821,21.34733 17.525981,13.69265 c 0.386847,-4.38556 1.874158,-8.64904 4.622123,-12.43129 4.816443,-6.62927 12.434986,-10.20281 20.047622,-10.10725 l 15.880116,-6.76625 c 0,0 -0.75056,-1.03334 -1.31205,-2.73139 -0.56149,-1.69806 -0.66953,-3.14823 -0.66953,-3.14823 z"
         id="path1383-47"
         inkscape:connector-curvature="0" />
      <path
         style="display:inline;fill:#000000;fill-opacity:1;stroke:none;stroke-width:5.57001;stroke-linecap:butt;stroke-linejoin:miter;stroke-miterlimit:4;stroke-dasharray:none;stroke-opacity:0.635628"
         d="m 116.82051,87.388186 c -4.52949,-0.0613 -9.11835,1.28961 -13.07262,4.16254 -9.732952,7.071385 -11.884441,20.651274 -4.812652,30.384764 7.071392,9.73289 20.651882,11.88347 30.384762,4.81211 7.15622,-5.19929 10.21341,-13.91653 8.52041,-22.03642 -0.60972,-2.92433 -1.83539,-5.771229 -3.70778,-8.348354 -4.19889,-5.77927 -10.69208,-8.88505 -17.31212,-8.97464 z"
         id="path1385-0"
         inkscape:connector-curvature="0" />
      <path
         style="display:inline;fill:#000000;fill-opacity:1;stroke:none;stroke-width:5.57001;stroke-linecap:butt;stroke-linejoin:miter;stroke-miterlimit:4;stroke-dasharray:none;stroke-opacity:0.635628"
         d="m 161.94237,120.14772 c -4.52952,-0.0613 -9.11835,1.2896 -13.07259,4.16253 -9.73294,7.07139 -11.88443,20.65122 -4.81264,30.38471 7.07137,9.73289 20.65184,11.88346 30.38472,4.81211 7.15622,-5.19929 10.2134,-13.91653 8.5204,-22.03638 -0.60971,-2.92432 -1.83539,-5.77121 -3.70777,-8.34833 -4.1989,-5.77927 -10.69209,-8.88505 -17.31212,-8.97464 z"
         id="path1385-6"
         inkscape:connector-curvature="0" />
      <path
         style="display:inline;fill:#000000;fill-opacity:1;stroke:none;stroke-width:5.57001;stroke-linecap:butt;stroke-linejoin:miter;stroke-miterlimit:4;stroke-dasharray:none;stroke-opacity:0.635628"
         d="m 144.65472,173.2864 c -4.5295,-0.0613 -9.11834,1.2896 -13.07259,4.16253 -9.73293,7.07139 -11.88442,20.65122 -4.81263,30.38471 7.07136,9.73289 20.65184,11.88346 30.38472,4.81211 7.15622,-5.19929 10.21341,-13.91653 8.52041,-22.03638 -0.60972,-2.92432 -1.8354,-5.77121 -3.70779,-8.34833 -4.19889,-5.77927 -10.69208,-8.88505 -17.31212,-8.97464 z"
         id="path1385-5"
         inkscape:connector-curvature="0" />
      <path
         style="display:inline;fill:#000000;fill-opacity:1;stroke:none;stroke-width:5.57001;stroke-linecap:butt;stroke-linejoin:miter;stroke-miterlimit:4;stroke-dasharray:none;stroke-opacity:0.635628"
         d="m 88.79632,173.2864 c -4.5295,-0.0613 -9.11833,1.2896 -13.072592,4.16253 -9.732919,7.07139 -11.884419,20.65122 -4.812619,30.38471 7.071351,9.73289 20.651821,11.88346 30.384711,4.81211 7.15625,-5.19929 10.21347,-13.91653 8.52046,-22.03638 -0.60973,-2.92432 -1.83541,-5.77121 -3.70781,-8.34833 -4.1989,-5.77927 -10.692111,-8.88505 -17.31215,-8.97464 z"
         id="path1385-3"
         inkscape:connector-curvature="0" />
      <path
         style="display:inline;fill:#000000;fill-opacity:1;stroke:none;stroke-width:5.57001;stroke-linecap:butt;stroke-linejoin:miter;stroke-miterlimit:4;stroke-dasharray:none;stroke-opacity:0.635628"
         d="m 71.613397,120.14772 c -4.529503,-0.0613 -9.118335,1.28961 -13.072589,4.16253 -9.732925,7.07139 -11.884419,20.65122 -4.812625,30.38471 7.071355,9.73289 20.651824,11.88347 30.38471,4.81211 7.156215,-5.19929 10.213409,-13.91653 8.520409,-22.03638 -0.609724,-2.92432 -1.835399,-5.77121 -3.707784,-8.34833 -4.198887,-5.77927 -10.692082,-8.88505 -17.312121,-8.97464 z"
         id="path1385-8"
         inkscape:connector-curvature="0" />
      <path
         style="display:inline;fill:#000000;fill-opacity:1;stroke:none;stroke-width:8.84732;stroke-linecap:butt;stroke-linejoin:miter;stroke-miterlimit:4;stroke-dasharray:none;stroke-opacity:0.635628"
         d="m 116.62917,145.0784 c -2.39349,-0.0323 -4.81834,0.68145 -6.90788,2.19959 -5.14314,3.7367 -6.28004,10.91263 -2.54312,16.05605 3.68351,5.06989 10.70931,6.24635 15.83517,2.69945 0.0741,-0.0512 0.14765,-0.1034 0.22086,-0.15662 3.78151,-2.74743 5.39701,-7.35386 4.50239,-11.64458 -0.3222,-1.54527 -0.96987,-3.04965 -1.95928,-4.41146 -2.2188,-3.05391 -5.64995,-4.69509 -9.14814,-4.74243 z"
         id="path1385-5-4"
         inkscape:connector-curvature="0" />
      <path
         style="display:inline;fill:#000000;stroke:none;stroke-width:5.77001;stroke-miterlimit:4;stroke-dasharray:none;stroke-opacity:0.635628"
         d="m 114.84406,133.63996 c 0,0 0.73373,0.0526 1.67666,0.0526 0.94293,0 1.63063,-0.0526 1.63063,-0.0526 v 9.20966 c 0,0 -0.68185,-0.10948 -1.65401,-0.10949 -0.97217,-1e-5 -1.65328,0.10949 -1.65328,0.10949 z"
         id="rect1621"
         inkscape:connector-curvature="0" />
      <path
         style="display:inline;fill:#000000;stroke:none;stroke-width:5.77001;stroke-miterlimit:4;stroke-dasharray:none;stroke-opacity:0.635628"
         d="m 94.112918,151.07296 c 0,0 0.27676,-0.68157 0.568143,-1.57835 0.29138,-0.89678 0.453866,-1.56707 0.453866,-1.56707 l 8.745623,2.88516 c 0,0 -0.26441,0.51032 -0.56483,1.4349 -0.30043,0.92458 -0.44065,1.69399 -0.44065,1.69399 z"
         id="rect1621-4"
         inkscape:connector-curvature="0" />
      <path
         style="display:inline;fill:#000000;stroke:none;stroke-width:5.77001;stroke-miterlimit:4;stroke-dasharray:none;stroke-opacity:0.635628"
         d="m 104.3478,176.14709 c 0,0 -0.56269,-0.47383 -1.32554,-1.02807 -0.76285,-0.55424 -1.35012,-0.91591 -1.35012,-0.91591 l 5.38596,-7.4036 c 0,0 0.56025,0.50274 1.26406,1.00803 0.70382,0.50528 1.44468,0.93595 1.44468,0.93595 z"
         id="rect1621-9"
         inkscape:connector-curvature="0" />
      <path
         style="display:inline;fill:#000000;stroke:none;stroke-width:5.77001;stroke-miterlimit:4;stroke-dasharray:none;stroke-opacity:0.635628"
         d="m 131.2924,174.2031 c 0,0 -0.62453,0.38873 -1.38737,0.94298 -0.76284,0.55423 -1.28828,1.00101 -1.28828,1.00101 l -5.43558,-7.43666 c 0,0 0.6257,-0.34845 1.41221,-0.91987 0.78651,-0.57142 1.24691,-1.04066 1.24691,-1.04066 z"
         id="rect1621-0"
         inkscape:connector-curvature="0" />
      <path
         style="display:inline;fill:#000000;stroke:none;stroke-width:5.77001;stroke-miterlimit:4;stroke-dasharray:none;stroke-opacity:0.635628"
         d="m 137.78385,147.94357 c 0,0 0.17671,0.71409 0.4681,1.61087 0.29138,0.89677 0.55392,1.53455 0.55392,1.53455 l -8.76214,2.83559 c 0,0 -0.10744,-0.67089 -0.40781,-1.59548 -0.3004,-0.92459 -0.63075,-1.5334 -0.63075,-1.5334 z"
         id="rect1621-2"
         inkscape:connector-curvature="0" />
    </g>
  </g>
</svg>
