<svg xmlns="http://www.w3.org/2000/svg" viewBox="0 0.1987299919128418 21.032899856567383 21.034170150756836"><g xmlns="http://www.w3.org/2000/svg" clip-path="url(#clip0_1293_14101)">
<g clip-path="url(#clip1_1293_14101)">
<path d="M8.47342 6.0069L11.022 6.68678L9.28629 0.19873L6.34692 0.98989L7.39321 4.92397C7.53298 5.45186 7.94688 5.86712 8.47342 6.0069Z" fill="#F34E3F"></path>
<path d="M4.16478 19.2218L9.72461 13.6728L11.748 21.2329L14.6873 20.4418L11.7588 9.46461L0.78166 6.53882L0 9.49447L7.55333 11.5138L2.01657 17.0546L4.16478 19.2218Z" fill="#F34E3F"></path>
<path d="M14.5312 10.1987L15.2138 12.7581C15.355 13.286 15.7689 13.6999 16.2941 13.8397L20.2512 14.8914L21.0329 11.9358L14.5312 10.1987Z" fill="#F34E3F"></path>
<path d="M16.8681 2.2085L14.3386 4.73532C14.059 5.01487 13.9003 5.38535 13.8894 5.7816L13.8487 7.38428L15.3306 7.43585C15.3116 7.43585 15.3496 7.43585 15.3306 7.43585C15.7363 7.43585 16.1177 7.27707 16.404 6.99073L19.0163 4.3757L16.8681 2.2085Z" fill="#F34E3F"></path>
</g>
</g></svg>